<svg t="1658315935166" viewBox="0 0 1024 1024" version="1.1" xmlns="http://www.w3.org/2000/svg" p-id="9949" width="26" height="26">
  <path fill="#42b883" d="M529.322667 635.946667a42.666667 42.666667 0 0 0-23.168 55.765333 42.666667 42.666667 0 0 1-9.258667 46.506667l-120.661333 120.704a85.333333 85.333333 0 0 1-120.661334 0L165.034667 768.426667a85.333333 85.333333 0 0 1 0-120.704L285.866667 527.061333a43.221333 43.221333 0 0 1 46.549333-9.258666 42.666667 42.666667 0 0 0 32.554667-78.890667 129.450667 129.450667 0 0 0-139.434667 27.818667l-120.832 120.661333a170.922667 170.922667 0 0 0 0 241.365333l90.538667 90.496a170.666667 170.666667 0 0 0 241.322666 0l120.704-120.661333a128.341333 128.341333 0 0 0 27.776-139.52 42.666667 42.666667 0 0 0-55.722666-23.125333z" p-id="9950"></path>
  <path fill="#42b883" d="M330.965333 692.949333a43.136 43.136 0 0 0 60.330667 0l331.904-331.861333a42.666667 42.666667 0 0 0-60.330667-60.330667l-331.904 331.861334a42.666667 42.666667 0 0 0 0 60.330666z" p-id="9951"></path>
  <path fill="#42b883" d="M919.296 195.157333l-90.496-90.496a170.922667 170.922667 0 0 0-241.365333 0l-120.704 120.661334a128.256 128.256 0 0 0-27.776 139.477333 42.666667 42.666667 0 1 0 78.890666-32.597333 42.666667 42.666667 0 0 1 9.258667-46.336l120.661333-120.661334a85.333333 85.333333 0 0 1 120.704 0l90.496 90.496a85.333333 85.333333 0 0 1 0 120.704L738.133333 496.853333a43.306667 43.306667 0 0 1-46.549333 9.258667 42.666667 42.666667 0 0 0-32.64 78.890667 129.109333 129.109333 0 0 0 139.52-27.776l120.661333-120.661334a170.965333 170.965333 0 0 0 0.170667-241.408z" p-id="9952"></path>
</svg>