<svg t="1658371129249" class="icon" viewBox="0 0 1024 1024" version="1.1" xmlns="http://www.w3.org/2000/svg" p-id="11919" width="26" height="26">
  <path d="M0 0m46.545455 0l930.90909 0q46.545455 0 46.545455 46.545455l0 930.90909q0 46.545455-46.545455 46.545455l-930.90909 0q-46.545455 0-46.545455-46.545455l0-930.90909q0-46.545455 46.545455-46.545455Z" fill="#F75C65" p-id="11920"></path>
  <path d="M46.545455 0h930.90909a46.545455 46.545455 0 0 1 46.545455 46.545455v279.272727H0V46.545455a46.545455 46.545455 0 0 1 46.545455-46.545455z" fill="#4CC8FD" p-id="11921"></path>
  <path d="M0 698.181818h1024v279.272727a46.545455 46.545455 0 0 1-46.545455 46.545455H46.545455a46.545455 46.545455 0 0 1-46.545455-46.545455V698.181818z" fill="#83CC39" p-id="11922"></path>
  <path d="M372.363636 0h279.272728v1024H372.363636z" fill="#FEAB41" p-id="11923"></path>
  <path d="M663.272727 628.363636h-302.545454a34.909091 34.909091 0 0 1-34.909091-34.909091v-162.90909a34.909091 34.909091 0 0 1 34.909091-34.909091h302.545454a34.909091 34.909091 0 0 1 34.909091 34.909091v162.90909a34.909091 34.909091 0 0 1-34.909091 34.909091zM372.363636 581.818182h279.272728v-139.636364H372.363636z" fill="#FFFFFF" p-id="11924"></path>
</svg>